<?xml version="1.0" standalone="no"?>
<!DOCTYPE svg PUBLIC "-//W3C//DTD SVG 20010904//EN"
 "http://www.w3.org/TR/2001/REC-SVG-20010904/DTD/svg10.dtd">
<svg version="1.0" xmlns="http://www.w3.org/2000/svg"
 width="512.000000pt" height="512.000000pt" viewBox="0 0 512.000000 512.000000"
 preserveAspectRatio="xMidYMid meet">

<g transform="translate(0.000000,512.000000) scale(0.100000,-0.100000)"
fill="#000000" stroke="none">
<path d="M2470 4913 c-181 -6 -402 -43 -587 -99 -366 -111 -679 -295 -957
-564 -393 -381 -629 -850 -702 -1395 -17 -132 -20 -432 -4 -565 94 -786 581
-1481 1286 -1833 132 -66 283 -127 314 -127 15 0 40 17 66 44 60 63 64 93 64
451 l0 305 -229 0 c-255 0 -307 9 -393 68 -61 42 -91 89 -158 252 -73 177
-110 239 -182 305 -32 28 -58 57 -58 63 0 16 44 26 83 18 57 -11 161 -90 247
-188 183 -206 242 -229 538 -209 204 13 267 28 305 73 62 71 144 150 176 171
19 11 62 31 95 43 l61 23 -55 0 c-192 2 -457 63 -637 146 -150 69 -302 194
-375 306 l-33 52 -185 -6 c-192 -7 -424 -26 -602 -51 -56 -8 -103 -14 -104
-13 -1 1 -4 23 -7 49 -5 39 -4 48 11 52 70 20 571 66 730 66 56 0 102 3 102 6
0 4 -5 23 -11 44 -11 37 -12 37 -78 44 -96 9 -485 7 -636 -4 -144 -9 -145 -9
-145 51 0 26 5 39 17 44 10 4 194 10 409 13 l391 5 -5 106 c-8 172 38 348 129
490 l40 64 -20 86 c-31 135 -44 257 -38 356 6 104 18 149 50 196 23 34 24 34
98 32 41 -1 104 -9 140 -18 83 -22 220 -86 283 -133 28 -21 57 -42 63 -46 7
-4 52 6 100 23 305 103 661 105 963 5 l104 -35 26 20 c95 77 253 151 372 175
104 21 161 21 181 -2 78 -86 90 -306 32 -549 l-26 -111 40 -62 c50 -77 96
-194 112 -285 7 -40 10 -116 7 -185 l-5 -116 311 0 c171 1 359 -3 419 -8 l107
-8 0 -47 0 -47 -429 4 -428 4 -17 -48 c-9 -26 -16 -51 -16 -54 0 -4 89 -10
198 -13 168 -6 410 -26 620 -53 l53 -7 -7 -46 c-4 -25 -8 -48 -10 -50 -2 -2
-48 1 -101 8 -217 27 -398 41 -599 48 l-212 6 -15 -29 c-41 -78 -180 -211
-288 -275 -185 -110 -504 -197 -732 -200 l-52 0 57 -18 c176 -56 322 -224 409
-471 22 -62 24 -81 29 -430 4 -329 7 -369 24 -402 23 -47 79 -98 108 -98 31 0
188 65 330 137 233 118 425 261 618 460 189 194 310 369 431 618 112 231 181
463 215 720 17 131 19 434 4 566 -61 512 -289 991 -650 1363 -473 488 -1096
740 -1780 719z"/>
</g>
</svg>
